<?xml version="1.0" encoding="UTF-8" standalone="no"?>
<!-- Created with Inkscape (http://www.inkscape.org/) -->
<svg id="svg2" xmlns:rdf="http://www.w3.org/1999/02/22-rdf-syntax-ns#" xmlns="http://www.w3.org/2000/svg" height="102.66mm" width="102.66mm" version="1.1" xmlns:cc="http://creativecommons.org/ns#" xmlns:dc="http://purl.org/dc/elements/1.1/" viewBox="0 0 363.75001 363.75001">
 <metadata id="metadata7">
  <rdf:RDF>
   <cc:Work rdf:about="">
    <dc:format>image/svg+xml</dc:format>
    <dc:type rdf:resource="http://purl.org/dc/dcmitype/StillImage"/>
    <dc:title/>
   </cc:Work>
  </rdf:RDF>
 </metadata>
 <g id="layer2">
  <path id="path3454" d="m177.81 360.2c-1.121-1.2983-3.7849-4.972-5.9197-8.1639-4.2401-6.3397-6.2011-7.9233-8.3508-6.7435-0.7366 0.40425-4.204 3.6514-7.7053 7.2158-4.7933 4.8797-6.8226 6.4781-8.2143 6.4698-3.1515-0.0186-3.4024-0.36255-9.0059-12.347-1.8004-3.8505-3.7396-7.1798-4.3094-7.3985-1.8515-0.7105-4.2767 0.36612-11.466 5.09-9.8977 6.5036-12.293 6.23-13.862-1.584-2.1577-10.743-3.0981-14-4.4248-15.327-1.8066-1.8066-3.4254-1.5078-12.305 2.2714-3.7179 1.5824-7.7011 2.8771-8.8516 2.8771-3.5164 0-4.0175-1.3899-4.4096-12.231-0.32708-9.0443-0.49285-10.011-1.9695-11.486l-1.6124-1.6109-9.6779 2.0054c-9.0177 1.8686-9.797 1.9274-11.423 0.86175-2.2302-1.4613-2.3137-5.0471-0.31688-13.611 1.8806-8.0654 1.8246-9.225-0.53571-11.098-1.8415-1.4609-2.4555-1.5298-9.8214-1.1019-6.7206 0.39037-8.2188 0.27248-10.357-0.81495-1.7181-0.87375-2.5663-1.84-2.7119-3.0895-0.11655-0.99997 1.2495-5.5558 3.0357-10.124 3.5938-9.191 3.942-11.565 1.8601-12.679-0.76312-0.40841-5.2901-1.5193-10.06-2.4686-9.0291-1.797-11.41-3.0003-11.41-5.7668 0-0.85993 2.25-5.0389 5-9.2865 5.2791-8.1542 5.9925-10.666 3.6351-12.8-0.7507-0.67937-4.6882-2.5224-8.75-4.0956-8.4966-3.2909-9.8851-4.3059-9.8851-7.2261 0-1.7258 1.2465-3.3405 6.7857-8.7904 9.4896-9.3366 9.4074-9.8585-2.8935-18.381-6.8674-4.7579-8.2255-6.724-6.4823-9.3844 0.65343-0.99726 4.4049-3.9007 8.3367-6.4522 3.9318-2.5514 7.3355-5.1258 7.5638-5.7208 0.86937-2.2655-0.67575-4.8319-6.891-11.446-9.0662-9.6473-8.8628-10.584 3.4704-15.984 4.6986-2.0573 9.075-4.3284 9.7252-5.0469 1.0645-1.1763 1.0776-1.557 0.13074-3.8231-0.57834-1.3842-3.0077-5.397-5.3987-8.9174-6.8355-10.065-6.1075-11.427 7.5544-14.143 12.417-2.4684 12.859-3.3371 7.7296-15.191-3.6202-8.3662-3.8591-10.146-1.6394-12.214 1.3836-1.289 2.5532-1.4646 10.179-1.5276 14.303-0.11821 14.255-0.06771 11.809-12.224-2.0478-10.18-2.0376-11.634 0.09427-13.483 1.9494-1.6907 2.0139-1.69 9.5763 0.10611 6.2753 1.4904 12.798 2.0339 13.691 1.1409 0.80288-0.80288 1.5513-7.5333 1.6069-14.451 0.04679-5.8163 0.22207-6.6423 1.7053-8.0357 2.3303-2.1892 3.8769-1.9792 12.237 1.6612 4.06 1.7679 8.1707 3.2143 9.1349 3.2143 2.9529 0 4.0911-2.1978 5.9397-11.469 2.6246-13.163 3.8685-13.79 14.145-7.1332 3.6125 2.3402 7.7225 4.7372 9.1332 5.3267 2.4399 1.0195 2.6388 0.99314 4.0791-0.53998 0.83276-0.88643 2.8091-4.7945 4.3919-8.6845 3.1368-7.7094 5.079-10.357 7.597-10.357 1.0742 0 3.9732 2.1985 8.4646 6.4194 6.6174 6.2188 9.1797 7.7604 11.45 6.8892 0.59755-0.2293 2.6673-2.9158 4.5994-5.9699 6.108-9.6552 7.1377-10.91 8.9518-10.91 2.4318 0 5.545 2.9188 8.9734 8.4134 6.9757 11.18 8.2355 11.32 17.446 1.9438 9.7402-9.916 11.156-9.5764 16.498 3.9575 1.4669 3.7162 3.15 7.3193 3.74 8.0068 1.9288 2.2471 4.597 1.4553 12.637-3.75 4.2477-2.75 8.4531-5 9.3454-5 2.4503 0 4.3472 3.0372 5.2443 8.3969 2.7721 16.562 2.8076 16.587 15.767 11.246 8.351-3.4418 10.364-3.7945 12.542-2.1978 1.2632 0.92611 1.3865 1.9477 1.3865 11.484 0 13.769-0.0328 13.739 12.107 11.055 8.8945-1.9662 12.193-1.8871 13.644 0.32725 1.0594 1.6169 1.0072 2.4008-0.73614 11.047-2.6599 13.192-2.2756 13.641 11.659 13.641 12.87 0 13.767 1.402 8.6132 13.465-3.6676 8.5842-4.0738 10.795-2.2815 12.417 0.77589 0.70217 4.8789 1.9365 9.6394 2.8999 13.928 2.8186 14.566 4.1291 7.3423 15.085-6.9622 10.559-6.9743 11.574-0.17499 14.654 2.4607 1.1145 6.6166 2.9986 9.2352 4.187 5.3444 2.4254 6.8298 4.2396 5.5317 6.7565-0.45588 0.88393-3.8422 4.696-7.5251 8.4714-3.6829 3.7753-6.6962 7.369-6.6962 7.9859 0 1.304 3.8719 4.6865 11.429 9.9841 5.0864 3.5658 5.3682 3.9078 5.5761 6.7673l0.21891 3.0117-7.0046 4.5586c-8.68 5.6489-10.644 7.6275-9.5681 9.6382 0.42525 0.7946 3.6671 4.5609 7.204 8.3695 9.4071 10.13 9.2741 10.591-4.8146 16.692-4.1553 1.7994-7.8723 3.7845-8.26 4.4112-1.1093 1.7932-0.12518 4.2503 4.5597 11.385 2.3977 3.6515 4.521 7.6345 4.7184 8.8513 0.56162 3.4608-1.2946 4.5347-11.28 6.5257-4.8482 0.96668-9.2772 2.2199-9.8423 2.785-1.647 1.647-1.0382 5.5926 1.9582 12.69 4.1419 9.8112 4.1032 9.5214 1.6034 12.021l-2.1733 2.1733-8.9166-0.49541c-7.6749-0.42642-9.1696-0.32962-10.734 0.69511-2.2723 1.4889-2.2667 2.294 0.0902 13.049 1.8157 8.2854 1.8492 8.7913 0.69781 10.549-1.5201 2.32-4.0048 2.3939-14.034 0.41719-8.9579-1.7656-8.9486-1.7657-10.806 0.0915-1.446 1.446-1.4957 1.9481-1.0195 10.307 0.53799 9.4434 0.2234 10.889-2.8011 12.871-1.6208 1.062-2.0782 0.97651-8.0106-1.4974-13.609-5.6752-15.215-5.6258-16.936 0.52124-0.58166 2.0781-1.4338 6.3498-1.8937 9.4927-1.1993 8.1964-3.7748 10.013-9.3514 6.5954-15.106-9.257-16.082-9.6319-17.993-6.9047-0.56875 0.81201-2.2533 4.4281-3.7434 8.0357-5.5112 13.343-6.4613 13.505-17.446 2.9826-7.1746-6.8726-8.1916-7.3792-10.508-5.2344-0.99116 0.91758-3.6855 4.4574-5.9874 7.8662-6.1402 9.0928-8.2763 10.192-11.823 6.0845zm20.851-76.288c7.0536-3.9711 25.36-14.47 40.682-23.331 15.321-8.8611 30.177-17.425 33.013-19.03l5.1556-2.9188 0.0229-33.112c0.0187-27.036-0.149-33.046-0.91413-32.753-0.51539 0.19777-10.078 5.6455-21.25 12.106-19.469 11.258-35.292 20.273-59.242 33.751-9.8834 5.562-11.279 6.1535-13.009 5.5128-1.6361-0.60618-36.923-20.307-62.52-34.905l-7.3141-4.1713-0.14994-5.7143c-0.18441-7.0275-0.0989-9.6468 0.32896-10.075 0.18097-0.18097 10.256 5.3656 22.389 12.326 12.133 6.9601 27.846 15.969 34.917 20.021 7.0714 4.0514 13.276 7.3672 13.789 7.3686 0.51248 0.001 8.2268-4.2151 17.143-9.3699 24.153-13.964 38.56-22.241 57.997-33.322l17.5-9.9766 0.2114-10.629c0.11628-5.8458 0.0261-11.648-0.2004-12.894-0.38468-2.116-1.7868-3.0531-21.283-14.224-11.479-6.5774-31.609-18.204-44.733-25.837-13.124-7.6328-24.574-14.202-25.445-14.599-1.3706-0.62448-5.4516 1.5267-30.424 16.036-15.862 9.2167-33.447 19.414-39.076 22.66-5.6292 3.2462-9.9685 6.1406-9.6428 6.4321 0.32566 0.29152 5.1614 3.1331 10.746 6.3146l10.154 5.7845 24.286-13.877c27.817-15.894 30.84-17.497 33.007-17.497 0.86713 0 5.9018 2.4366 11.188 5.4146 11.112 6.2598 55.597 32.189 57.479 33.503 1.1245 0.78498 0.51813 1.3305-5.3571 4.8196-10.622 6.308-60.251 34.727-62.18 35.606-1.6064 0.73194-5.7493-1.4859-48.007-25.699-25.437-14.575-46.372-26.501-46.522-26.501-0.15058 0-0.27044 14.866-0.26634 33.036l0.0074 33.036 45.885 26.226c25.237 14.424 46.379 26.405 46.983 26.625 1.1048 0.40195 6.507-2.5993 48.787-27.105 17.481-10.132 22.159-12.559 22.663-11.757 0.46971 0.74758 0.16875 14.942-0.32577 15.364-0.40051 0.34195-40.237 22.865-53.536 30.269-16.292 9.0699-17.11 9.4373-18.929 8.5005-4.2176-2.1727-31.459-17.499-60.313-33.934-16.805-9.5718-30.707-17.403-30.893-17.403-0.18561 0-0.32276 5.5446-0.30479 12.321l0.03264 12.321 30.441 17.5c48.775 28.041 61.187 34.96 62.741 34.981 0.80354 0.0106 7.2321-3.2298 14.286-7.2009h0.00003z"/>
 </g>
</svg>
